<mxfile host="app.diagrams.net" modified="2024-03-20T01:30:32.167Z" agent="Mozilla/5.0 (Windows NT 10.0; Win64; x64) AppleWebKit/537.36 (KHTML, like Gecko) Chrome/122.0.0.0 Safari/537.36" version="23.1.7" etag="4JUSWG9SB1TNmHuAuipy" type="github">
  <diagram name="第 1 页" id="4EcRymzSorw7CZgizmf2">
    <mxGraphModel>
      <root>
        <mxCell id="0" />
        <mxCell id="1" parent="0" />
      </root>
    </mxGraphModel>
  </diagram>
</mxfile>
